M48
; DRILL file {KiCad (5.1.10)-1} date 07/08/21 21:40:55
; FORMAT={-:-/ absolute / inch / decimal}
; #@! TF.CreationDate,2021-07-08T21:40:55-07:00
; #@! TF.GenerationSoftware,Kicad,Pcbnew,(5.1.10)-1
; #@! TF.FileFunction,Plated,1,2,PTH
FMAT,2
INCH
T1C0.0157
T2C0.0295
T3C0.0350
T4C0.0354
T5C0.0420
T6C0.0433
%
G90
G05
T1
X5.77Y-3.01
X5.7902Y-3.1202
X7.16Y-2.75
T2
X5.8467Y-2.2158
X5.8967Y-2.2158
X5.9467Y-2.2158
X6.1111Y-2.2158
X6.1611Y-2.2158
X6.2111Y-2.2158
X6.3756Y-2.2158
X6.4256Y-2.2158
X6.4756Y-2.2158
X6.64Y-2.2158
X6.69Y-2.2158
X6.74Y-2.2158
T3
X5.55Y-4.66
X5.56Y-4.0
X5.56Y-4.11
X5.56Y-4.22
X5.85Y-4.66
X5.86Y-4.0
X5.86Y-4.11
X5.86Y-4.22
X5.9Y-1.7
X5.9Y-2.0
X5.9633Y-4.66
X5.97Y-2.47
X5.97Y-2.77
X6.07Y-2.47
X6.07Y-2.77
X6.1633Y-1.7
X6.1633Y-2.0
X6.17Y-2.47
X6.17Y-2.77
X6.17Y-3.43
X6.17Y-3.73
X6.2633Y-4.66
X6.27Y-2.47
X6.27Y-2.77
X6.37Y-3.43
X6.37Y-3.73
X6.3767Y-4.66
X6.4267Y-1.7
X6.4267Y-2.0
X6.47Y-2.47
X6.47Y-2.77
X6.57Y-3.43
X6.57Y-3.73
X6.6Y-4.11
X6.6767Y-4.66
X6.69Y-1.7
X6.69Y-2.0
X6.7Y-4.11
X6.79Y-4.66
X6.82Y-4.11
X7.09Y-4.66
X7.12Y-4.11
T4
X5.965Y-4.11
X6.05Y-4.11
X6.135Y-4.11
X6.22Y-4.11
T5
X5.27Y-1.7
X5.27Y-1.8
X5.27Y-1.9
X5.27Y-2.0
X5.27Y-2.1
X5.27Y-2.2
X5.27Y-2.3
X5.27Y-2.4
X5.27Y-2.5
X5.27Y-2.6
X5.27Y-2.7
X5.27Y-2.8
X5.27Y-2.9
X5.27Y-3.0
X5.27Y-3.1
X5.27Y-3.2
X5.27Y-3.3
X5.27Y-3.4
X5.27Y-3.5
X5.27Y-3.6
X5.27Y-3.7
X5.27Y-3.8
X5.27Y-3.9
X5.27Y-4.0
X5.27Y-4.1
X5.27Y-5.2
X5.27Y-5.3
X5.37Y-1.7
X5.37Y-1.8
X5.37Y-1.9
X5.37Y-2.0
X5.37Y-2.1
X5.37Y-2.2
X5.37Y-2.3
X5.37Y-2.4
X5.37Y-2.5
X5.37Y-2.6
X5.37Y-2.7
X5.37Y-2.8
X5.37Y-2.9
X5.37Y-3.0
X5.37Y-3.1
X5.37Y-3.2
X5.37Y-3.3
X5.37Y-3.4
X5.37Y-3.5
X5.37Y-3.6
X5.37Y-3.7
X5.37Y-3.8
X5.37Y-3.9
X5.37Y-4.0
X5.37Y-4.1
X5.97Y-2.9
X5.97Y-3.3
X6.07Y-2.9
X6.07Y-3.3
X6.17Y-2.9
X6.17Y-3.3
X6.27Y-2.9
X6.27Y-3.3
X6.37Y-3.3
X6.47Y-2.9
X6.47Y-3.3
X6.57Y-3.3
X6.67Y-2.9
X6.67Y-3.3
X7.27Y-1.7
X7.27Y-1.8
X7.27Y-1.9
X7.27Y-2.0
X7.27Y-2.1
X7.27Y-2.2
X7.27Y-2.3
X7.27Y-2.4
X7.27Y-2.5
X7.27Y-2.6
X7.27Y-2.7
X7.27Y-2.8
X7.27Y-2.9
X7.27Y-3.0
X7.27Y-3.1
X7.27Y-3.2
X7.27Y-3.3
X7.27Y-3.4
X7.27Y-3.5
X7.27Y-3.6
X7.27Y-3.7
X7.27Y-3.8
X7.27Y-3.9
X7.27Y-4.0
X7.27Y-4.1
X7.37Y-1.7
X7.37Y-1.8
X7.37Y-1.9
X7.37Y-2.0
X7.37Y-2.1
X7.37Y-2.2
X7.37Y-2.3
X7.37Y-2.4
X7.37Y-2.5
X7.37Y-2.6
X7.37Y-2.7
X7.37Y-2.8
X7.37Y-2.9
X7.37Y-3.0
X7.37Y-3.1
X7.37Y-3.2
X7.37Y-3.3
X7.37Y-3.4
X7.37Y-3.5
X7.37Y-3.6
X7.37Y-3.7
X7.37Y-3.8
X7.37Y-3.9
X7.37Y-4.0
X7.37Y-4.1
X7.37Y-5.2
X7.37Y-5.3
T6
X5.6228Y-4.84
X5.6228Y-5.0959
X5.8Y-4.84
X5.8Y-5.0959
X6.0295Y-4.84
X6.0295Y-5.0959
X6.2067Y-4.84
X6.2067Y-5.0959
X6.4362Y-4.84
X6.4362Y-5.0959
X6.6133Y-4.84
X6.6133Y-5.0959
X6.8428Y-4.84
X6.8428Y-5.0959
X7.02Y-4.84
X7.02Y-5.0959
T0
M30
