%TF.GenerationSoftware,KiCad,Pcbnew,(5.1.10)-1*%
%TF.CreationDate,2021-07-08T21:42:34-07:00*%
%TF.ProjectId,299PCB,32393950-4342-42e6-9b69-6361645f7063,rev?*%
%TF.SameCoordinates,Original*%
%TF.FileFunction,Soldermask,Top*%
%TF.FilePolarity,Negative*%
%FSLAX46Y46*%
G04 Gerber Fmt 4.6, Leading zero omitted, Abs format (unit mm)*
G04 Created by KiCad (PCBNEW (5.1.10)-1) date 2021-07-08 21:42:34*
%MOMM*%
%LPD*%
G01*
G04 APERTURE LIST*
%ADD10C,2.000000*%
%ADD11C,1.905000*%
%ADD12R,1.050000X1.500000*%
%ADD13O,1.050000X1.500000*%
%ADD14C,1.778000*%
%ADD15R,2.032000X1.524000*%
%ADD16O,2.286000X1.651000*%
%ADD17R,1.778000X1.778000*%
%ADD18R,1.800000X1.800000*%
%ADD19C,1.800000*%
G04 APERTURE END LIST*
D10*
%TO.C,SW3*%
X163478666Y-122936000D03*
X167978666Y-122936000D03*
X163478666Y-129436000D03*
X167978666Y-129436000D03*
%TD*%
D11*
%TO.C,U1*%
X154178000Y-83820000D03*
X156718000Y-83820000D03*
X159258000Y-83820000D03*
X161798000Y-83820000D03*
X164338000Y-83820000D03*
X166878000Y-83820000D03*
X169418000Y-83820000D03*
X151638000Y-83820000D03*
X169418000Y-73660000D03*
X164338000Y-73660000D03*
X159258000Y-73660000D03*
X156718000Y-73660000D03*
X154178000Y-73660000D03*
X151638000Y-73660000D03*
%TD*%
D12*
%TO.C,Q3*%
X171196000Y-56280999D03*
D13*
X168656000Y-56280999D03*
X169926000Y-56280999D03*
%TD*%
D14*
%TO.C,R4*%
X172466000Y-118364000D03*
X180086000Y-118364000D03*
%TD*%
%TO.C,R1*%
X140970000Y-118364000D03*
X148590000Y-118364000D03*
%TD*%
%TO.C,R7*%
X159258000Y-62738000D03*
X159258000Y-70358000D03*
%TD*%
%TO.C,R13*%
X141224000Y-107188000D03*
X148844000Y-107188000D03*
%TD*%
%TO.C,R17*%
X156548668Y-43180000D03*
X156548668Y-50800000D03*
%TD*%
%TO.C,R20*%
X156718000Y-87122000D03*
X156718000Y-94742000D03*
%TD*%
D15*
%TO.C,STM1*%
X133858000Y-134618800D03*
D16*
X133858000Y-132078800D03*
X187198000Y-132078800D03*
D15*
X187198000Y-134618800D03*
D16*
X187452000Y-104140000D03*
X187452000Y-101600000D03*
X187452000Y-99060000D03*
X187452000Y-96520000D03*
X187452000Y-93980000D03*
X187452000Y-91440000D03*
X187452000Y-88900000D03*
X187452000Y-86360000D03*
X187452000Y-83820000D03*
X187452000Y-81280000D03*
X187452000Y-78740000D03*
X187452000Y-76200000D03*
X187452000Y-73660000D03*
X187452000Y-71120000D03*
X187452000Y-68580000D03*
X187452000Y-66040000D03*
X187452000Y-63500000D03*
X187452000Y-60960000D03*
X187452000Y-58420000D03*
X187452000Y-55880000D03*
X187452000Y-53340000D03*
X187452000Y-50800000D03*
X187452000Y-48260000D03*
X187452000Y-45720000D03*
X187452000Y-43180000D03*
X184404000Y-104140000D03*
X184404000Y-101600000D03*
X184404000Y-99060000D03*
X184404000Y-96520000D03*
X184404000Y-93980000D03*
X184404000Y-91440000D03*
X184404000Y-88900000D03*
X184404000Y-86360000D03*
X184404000Y-83820000D03*
X184404000Y-81280000D03*
X184404000Y-78740000D03*
X184404000Y-76200000D03*
X184404000Y-73660000D03*
X184404000Y-71120000D03*
X184404000Y-68580000D03*
X184404000Y-66040000D03*
X184404000Y-63500000D03*
X184404000Y-60960000D03*
X184404000Y-58420000D03*
X184404000Y-55880000D03*
X184404000Y-53340000D03*
X184404000Y-50800000D03*
X184404000Y-48260000D03*
X184404000Y-45720000D03*
X184404000Y-43180000D03*
X136652000Y-104140000D03*
X136652000Y-101600000D03*
X136652000Y-99060000D03*
X136652000Y-96520000D03*
X136652000Y-93980000D03*
X136652000Y-91440000D03*
X136652000Y-88900000D03*
X136652000Y-86360000D03*
X136652000Y-83820000D03*
X136652000Y-81280000D03*
X136652000Y-78740000D03*
X136652000Y-76200000D03*
X136652000Y-73660000D03*
X136652000Y-71120000D03*
X136652000Y-68580000D03*
X136652000Y-66040000D03*
X136652000Y-63500000D03*
X136652000Y-60960000D03*
X136652000Y-58420000D03*
X136652000Y-55880000D03*
X136652000Y-53340000D03*
X136652000Y-50800000D03*
X136652000Y-48260000D03*
X136652000Y-45720000D03*
X136652000Y-43180000D03*
X133604000Y-104140000D03*
X133604000Y-101600000D03*
X133604000Y-99060000D03*
X133604000Y-96520000D03*
X133604000Y-93980000D03*
X133604000Y-91440000D03*
X133604000Y-88900000D03*
X133604000Y-86360000D03*
X133604000Y-83820000D03*
X133604000Y-81280000D03*
X133604000Y-78740000D03*
X133604000Y-76200000D03*
X133604000Y-73660000D03*
X133604000Y-71120000D03*
X133604000Y-68580000D03*
X133604000Y-66040000D03*
X133604000Y-63500000D03*
X133604000Y-60960000D03*
X133604000Y-58420000D03*
X133604000Y-55880000D03*
X133604000Y-53340000D03*
X133604000Y-50800000D03*
X133604000Y-48260000D03*
X133604000Y-45720000D03*
X133604000Y-43180000D03*
%TD*%
D14*
%TO.C,R9*%
X154178000Y-62738000D03*
X154178000Y-70358000D03*
%TD*%
D17*
%TO.C,D1*%
X167640000Y-104394000D03*
D14*
X170180000Y-104394000D03*
%TD*%
D18*
%TO.C,D2*%
X151511000Y-104394000D03*
D19*
X153670000Y-104394000D03*
X155829000Y-104394000D03*
X157988000Y-104394000D03*
%TD*%
D13*
%TO.C,Q1*%
X163209000Y-56280999D03*
X161939000Y-56280999D03*
D12*
X164479000Y-56280999D03*
%TD*%
%TO.C,Q2*%
X151044999Y-56280999D03*
D13*
X148504999Y-56280999D03*
X149774999Y-56280999D03*
%TD*%
%TO.C,Q4*%
X156492000Y-56280999D03*
X155222000Y-56280999D03*
D12*
X157762000Y-56280999D03*
%TD*%
D14*
%TO.C,R2*%
X159088666Y-118364000D03*
X151468666Y-118364000D03*
%TD*%
%TO.C,R3*%
X169587332Y-118364000D03*
X161967332Y-118364000D03*
%TD*%
%TO.C,R5*%
X163237334Y-43180000D03*
X163237334Y-50800000D03*
%TD*%
%TO.C,R6*%
X164338000Y-70358000D03*
X164338000Y-62738000D03*
%TD*%
%TO.C,R8*%
X156718000Y-70358000D03*
X156718000Y-62738000D03*
%TD*%
%TO.C,R10*%
X151638000Y-70358000D03*
X151638000Y-62738000D03*
%TD*%
%TO.C,R11*%
X149860000Y-50800000D03*
X149860000Y-43180000D03*
%TD*%
%TO.C,R12*%
X148844000Y-104394000D03*
X141224000Y-104394000D03*
%TD*%
%TO.C,R14*%
X141224000Y-101600000D03*
X148844000Y-101600000D03*
%TD*%
%TO.C,R15*%
X169926000Y-50800000D03*
X169926000Y-43180000D03*
%TD*%
%TO.C,R16*%
X173228000Y-104394000D03*
X180848000Y-104394000D03*
%TD*%
%TO.C,R18*%
X166878000Y-87122000D03*
X166878000Y-94742000D03*
%TD*%
%TO.C,R19*%
X161798000Y-94742000D03*
X161798000Y-87122000D03*
%TD*%
D10*
%TO.C,SW1*%
X142820000Y-122936000D03*
X147320000Y-122936000D03*
X142820000Y-129436000D03*
X147320000Y-129436000D03*
%TD*%
%TO.C,SW2*%
X157649333Y-129436000D03*
X153149333Y-129436000D03*
X157649333Y-122936000D03*
X153149333Y-122936000D03*
%TD*%
%TO.C,SW4*%
X178308000Y-129436000D03*
X173808000Y-129436000D03*
X178308000Y-122936000D03*
X173808000Y-122936000D03*
%TD*%
M02*
