%TF.GenerationSoftware,KiCad,Pcbnew,(5.1.10)-1*%
%TF.CreationDate,2021-07-08T21:42:34-07:00*%
%TF.ProjectId,299PCB,32393950-4342-42e6-9b69-6361645f7063,rev?*%
%TF.SameCoordinates,Original*%
%TF.FileFunction,Copper,L1,Top*%
%TF.FilePolarity,Positive*%
%FSLAX46Y46*%
G04 Gerber Fmt 4.6, Leading zero omitted, Abs format (unit mm)*
G04 Created by KiCad (PCBNEW (5.1.10)-1) date 2021-07-08 21:42:34*
%MOMM*%
%LPD*%
G01*
G04 APERTURE LIST*
%TA.AperFunction,ComponentPad*%
%ADD10C,2.000000*%
%TD*%
%TA.AperFunction,ComponentPad*%
%ADD11C,1.905000*%
%TD*%
%TA.AperFunction,ComponentPad*%
%ADD12R,1.050000X1.500000*%
%TD*%
%TA.AperFunction,ComponentPad*%
%ADD13O,1.050000X1.500000*%
%TD*%
%TA.AperFunction,ComponentPad*%
%ADD14C,1.778000*%
%TD*%
%TA.AperFunction,ComponentPad*%
%ADD15R,2.032000X1.524000*%
%TD*%
%TA.AperFunction,ComponentPad*%
%ADD16O,2.286000X1.651000*%
%TD*%
%TA.AperFunction,ComponentPad*%
%ADD17R,1.778000X1.778000*%
%TD*%
%TA.AperFunction,ComponentPad*%
%ADD18R,1.800000X1.800000*%
%TD*%
%TA.AperFunction,ComponentPad*%
%ADD19C,1.800000*%
%TD*%
%TA.AperFunction,ViaPad*%
%ADD20C,0.800000*%
%TD*%
%TA.AperFunction,Conductor*%
%ADD21C,0.250000*%
%TD*%
G04 APERTURE END LIST*
D10*
%TO.P,SW3,2*%
%TO.N,+5V*%
X163478666Y-122936000D03*
%TO.P,SW3,1*%
%TO.N,PB3*%
X167978666Y-122936000D03*
%TO.P,SW3,2*%
%TO.N,+5V*%
X163478666Y-129436000D03*
%TO.P,SW3,1*%
%TO.N,PB3*%
X167978666Y-129436000D03*
%TD*%
D11*
%TO.P,U1,2*%
%TO.N,Net-(Q2-Pad3)*%
X154178000Y-83820000D03*
%TO.P,U1,3*%
%TO.N,Net-(R20-Pad2)*%
X156718000Y-83820000D03*
%TO.P,U1,4*%
%TO.N,Net-(U1-Pad4)*%
X159258000Y-83820000D03*
%TO.P,U1,5*%
%TO.N,Net-(R19-Pad2)*%
X161798000Y-83820000D03*
%TO.P,U1,6*%
%TO.N,Net-(Q3-Pad3)*%
X164338000Y-83820000D03*
%TO.P,U1,7*%
%TO.N,Net-(R18-Pad2)*%
X166878000Y-83820000D03*
%TO.P,U1,8*%
%TO.N,Net-(Q4-Pad3)*%
X169418000Y-83820000D03*
%TO.P,U1,1*%
%TO.N,Net-(Q1-Pad3)*%
X151638000Y-83820000D03*
%TO.P,U1,9*%
%TO.N,Net-(U1-Pad9)*%
X169418000Y-73660000D03*
%TO.P,U1,11*%
%TO.N,Net-(R6-Pad1)*%
X164338000Y-73660000D03*
%TO.P,U1,13*%
%TO.N,Net-(R7-Pad1)*%
X159258000Y-73660000D03*
%TO.P,U1,14*%
%TO.N,Net-(R8-Pad1)*%
X156718000Y-73660000D03*
%TO.P,U1,15*%
%TO.N,Net-(R9-Pad1)*%
X154178000Y-73660000D03*
%TO.P,U1,16*%
%TO.N,Net-(R10-Pad1)*%
X151638000Y-73660000D03*
%TD*%
D12*
%TO.P,Q3,1*%
%TO.N,GND*%
X171196000Y-56280999D03*
D13*
%TO.P,Q3,3*%
%TO.N,Net-(Q3-Pad3)*%
X168656000Y-56280999D03*
%TO.P,Q3,2*%
%TO.N,Net-(Q3-Pad2)*%
X169926000Y-56280999D03*
%TD*%
D14*
%TO.P,R4,2*%
%TO.N,GND*%
X172466000Y-118364000D03*
%TO.P,R4,1*%
%TO.N,PB4*%
X180086000Y-118364000D03*
%TD*%
%TO.P,R1,1*%
%TO.N,PB1*%
X140970000Y-118364000D03*
%TO.P,R1,2*%
%TO.N,GND*%
X148590000Y-118364000D03*
%TD*%
%TO.P,R7,2*%
%TO.N,7SEGC*%
X159258000Y-62738000D03*
%TO.P,R7,1*%
%TO.N,Net-(R7-Pad1)*%
X159258000Y-70358000D03*
%TD*%
%TO.P,R13,2*%
%TO.N,ALRMB*%
X141224000Y-107188000D03*
%TO.P,R13,1*%
%TO.N,Net-(D2-Pad3)*%
X148844000Y-107188000D03*
%TD*%
%TO.P,R17,1*%
%TO.N,DIGIT4*%
X156548668Y-43180000D03*
%TO.P,R17,2*%
%TO.N,Net-(Q4-Pad2)*%
X156548668Y-50800000D03*
%TD*%
%TO.P,R20,2*%
%TO.N,Net-(R20-Pad2)*%
X156718000Y-87122000D03*
%TO.P,R20,1*%
%TO.N,7SEGD*%
X156718000Y-94742000D03*
%TD*%
D15*
%TO.P,STM1,JP31*%
%TO.N,Net-(STM1-PadJP31)*%
X133858000Y-134618800D03*
D16*
%TO.P,STM1,JP32*%
%TO.N,Net-(STM1-PadJP32)*%
X133858000Y-132078800D03*
%TO.P,STM1,JP22*%
%TO.N,Net-(STM1-PadJP22)*%
X187198000Y-132078800D03*
D15*
%TO.P,STM1,JP21*%
%TO.N,Net-(STM1-PadJP21)*%
X187198000Y-134618800D03*
D16*
%TO.P,STM1,1-1*%
%TO.N,Net-(STM1-Pad1-1)*%
X187452000Y-104140000D03*
%TO.P,STM1,1-3*%
%TO.N,Net-(STM1-Pad1-3)*%
X187452000Y-101600000D03*
%TO.P,STM1,1-5*%
%TO.N,Net-(STM1-Pad1-5)*%
X187452000Y-99060000D03*
%TO.P,STM1,1-7*%
%TO.N,Net-(STM1-Pad1-7)*%
X187452000Y-96520000D03*
%TO.P,STM1,1-9*%
%TO.N,Net-(STM1-Pad1-9)*%
X187452000Y-93980000D03*
%TO.P,STM1,1-11*%
%TO.N,Net-(STM1-Pad1-11)*%
X187452000Y-91440000D03*
%TO.P,STM1,1-13*%
%TO.N,Net-(STM1-Pad1-13)*%
X187452000Y-88900000D03*
%TO.P,STM1,1-15*%
%TO.N,Net-(STM1-Pad1-15)*%
X187452000Y-86360000D03*
%TO.P,STM1,1-17*%
%TO.N,Net-(STM1-Pad1-17)*%
X187452000Y-83820000D03*
%TO.P,STM1,1-19*%
%TO.N,Net-(STM1-Pad1-19)*%
X187452000Y-81280000D03*
%TO.P,STM1,1-21*%
%TO.N,Net-(STM1-Pad1-21)*%
X187452000Y-78740000D03*
%TO.P,STM1,1-23*%
%TO.N,Net-(STM1-Pad1-23)*%
X187452000Y-76200000D03*
%TO.P,STM1,1-25*%
%TO.N,7SEGD*%
X187452000Y-73660000D03*
%TO.P,STM1,1-27*%
%TO.N,7SEGF*%
X187452000Y-71120000D03*
%TO.P,STM1,1-29*%
%TO.N,7SEGDP*%
X187452000Y-68580000D03*
%TO.P,STM1,1-31*%
%TO.N,DIGIT2*%
X187452000Y-66040000D03*
%TO.P,STM1,1-33*%
%TO.N,DIGIT4*%
X187452000Y-63500000D03*
%TO.P,STM1,1-35*%
%TO.N,Net-(STM1-Pad1-35)*%
X187452000Y-60960000D03*
%TO.P,STM1,1-37*%
%TO.N,Net-(STM1-Pad1-37)*%
X187452000Y-58420000D03*
%TO.P,STM1,1-39*%
%TO.N,Net-(STM1-Pad1-39)*%
X187452000Y-55880000D03*
%TO.P,STM1,1-41*%
%TO.N,PB4*%
X187452000Y-53340000D03*
%TO.P,STM1,1-43*%
%TO.N,Net-(STM1-Pad1-43)*%
X187452000Y-50800000D03*
%TO.P,STM1,1-45*%
%TO.N,Net-(STM1-Pad1-45)*%
X187452000Y-48260000D03*
%TO.P,STM1,1-47*%
%TO.N,Net-(STM1-Pad1-47)*%
X187452000Y-45720000D03*
%TO.P,STM1,1-49*%
%TO.N,Net-(STM1-Pad1-49)*%
X187452000Y-43180000D03*
%TO.P,STM1,1-2*%
%TO.N,Net-(STM1-Pad1-2)*%
X184404000Y-104140000D03*
%TO.P,STM1,1-4*%
%TO.N,Net-(STM1-Pad1-4)*%
X184404000Y-101600000D03*
%TO.P,STM1,1-6*%
%TO.N,Net-(STM1-Pad1-6)*%
X184404000Y-99060000D03*
%TO.P,STM1,1-8*%
%TO.N,Net-(STM1-Pad1-8)*%
X184404000Y-96520000D03*
%TO.P,STM1,1-10*%
%TO.N,Net-(STM1-Pad1-10)*%
X184404000Y-93980000D03*
%TO.P,STM1,1-12*%
%TO.N,Net-(STM1-Pad1-12)*%
X184404000Y-91440000D03*
%TO.P,STM1,1-14*%
%TO.N,Net-(STM1-Pad1-14)*%
X184404000Y-88900000D03*
%TO.P,STM1,1-16*%
%TO.N,Net-(STM1-Pad1-16)*%
X184404000Y-86360000D03*
%TO.P,STM1,1-18*%
%TO.N,Net-(STM1-Pad1-18)*%
X184404000Y-83820000D03*
%TO.P,STM1,1-20*%
%TO.N,Net-(STM1-Pad1-20)*%
X184404000Y-81280000D03*
%TO.P,STM1,1-22*%
%TO.N,Net-(STM1-Pad1-22)*%
X184404000Y-78740000D03*
%TO.P,STM1,1-24*%
%TO.N,Net-(STM1-Pad1-24)*%
X184404000Y-76200000D03*
%TO.P,STM1,1-26*%
%TO.N,7SEGE*%
X184404000Y-73660000D03*
%TO.P,STM1,1-28*%
%TO.N,7SEGG*%
X184404000Y-71120000D03*
%TO.P,STM1,1-30*%
%TO.N,DIGIT1*%
X184404000Y-68580000D03*
%TO.P,STM1,1-32*%
%TO.N,DIGIT3*%
X184404000Y-66040000D03*
%TO.P,STM1,1-34*%
%TO.N,Net-(STM1-Pad1-34)*%
X184404000Y-63500000D03*
%TO.P,STM1,1-36*%
%TO.N,Net-(STM1-Pad1-36)*%
X184404000Y-60960000D03*
%TO.P,STM1,1-38*%
%TO.N,Net-(STM1-Pad1-38)*%
X184404000Y-58420000D03*
%TO.P,STM1,1-40*%
%TO.N,PB3*%
X184404000Y-55880000D03*
%TO.P,STM1,1-42*%
%TO.N,Net-(STM1-Pad1-42)*%
X184404000Y-53340000D03*
%TO.P,STM1,1-44*%
%TO.N,Net-(STM1-Pad1-44)*%
X184404000Y-50800000D03*
%TO.P,STM1,1-46*%
%TO.N,Net-(STM1-Pad1-46)*%
X184404000Y-48260000D03*
%TO.P,STM1,1-48*%
%TO.N,Net-(STM1-Pad1-48)*%
X184404000Y-45720000D03*
%TO.P,STM1,1-50*%
%TO.N,Net-(STM1-Pad1-50)*%
X184404000Y-43180000D03*
%TO.P,STM1,2-1*%
%TO.N,Net-(STM1-Pad2-1)*%
X136652000Y-104140000D03*
%TO.P,STM1,2-3*%
%TO.N,Net-(STM1-Pad2-3)*%
X136652000Y-101600000D03*
%TO.P,STM1,2-5*%
%TO.N,Net-(STM1-Pad2-5)*%
X136652000Y-99060000D03*
%TO.P,STM1,2-7*%
%TO.N,Net-(STM1-Pad2-7)*%
X136652000Y-96520000D03*
%TO.P,STM1,2-9*%
%TO.N,Net-(STM1-Pad2-9)*%
X136652000Y-93980000D03*
%TO.P,STM1,2-11*%
%TO.N,7SEGC*%
X136652000Y-91440000D03*
%TO.P,STM1,2-13*%
%TO.N,7SEGA*%
X136652000Y-88900000D03*
%TO.P,STM1,2-15*%
%TO.N,Net-(STM1-Pad2-15)*%
X136652000Y-86360000D03*
%TO.P,STM1,2-17*%
%TO.N,Net-(STM1-Pad2-17)*%
X136652000Y-83820000D03*
%TO.P,STM1,2-19*%
%TO.N,Net-(STM1-Pad2-19)*%
X136652000Y-81280000D03*
%TO.P,STM1,2-21*%
%TO.N,Net-(STM1-Pad2-21)*%
X136652000Y-78740000D03*
%TO.P,STM1,2-23*%
%TO.N,Net-(STM1-Pad2-23)*%
X136652000Y-76200000D03*
%TO.P,STM1,2-25*%
%TO.N,Net-(STM1-Pad2-25)*%
X136652000Y-73660000D03*
%TO.P,STM1,2-27*%
%TO.N,PB2*%
X136652000Y-71120000D03*
%TO.P,STM1,2-29*%
%TO.N,Net-(STM1-Pad2-29)*%
X136652000Y-68580000D03*
%TO.P,STM1,2-31*%
%TO.N,ALRMG*%
X136652000Y-66040000D03*
%TO.P,STM1,2-33*%
%TO.N,ALRMR*%
X136652000Y-63500000D03*
%TO.P,STM1,2-35*%
%TO.N,Net-(STM1-Pad2-35)*%
X136652000Y-60960000D03*
%TO.P,STM1,2-37*%
%TO.N,Net-(STM1-Pad2-37)*%
X136652000Y-58420000D03*
%TO.P,STM1,2-39*%
%TO.N,Net-(STM1-Pad2-39)*%
X136652000Y-55880000D03*
%TO.P,STM1,2-41*%
%TO.N,Net-(STM1-Pad2-41)*%
X136652000Y-53340000D03*
%TO.P,STM1,2-43*%
%TO.N,Net-(STM1-Pad2-43)*%
X136652000Y-50800000D03*
%TO.P,STM1,2-45*%
%TO.N,Net-(STM1-Pad2-45)*%
X136652000Y-48260000D03*
%TO.P,STM1,2-47*%
%TO.N,Net-(STM1-Pad2-47)*%
X136652000Y-45720000D03*
%TO.P,STM1,2-49*%
%TO.N,Net-(STM1-Pad2-49)*%
X136652000Y-43180000D03*
%TO.P,STM1,2-2*%
%TO.N,Net-(STM1-Pad2-2)*%
X133604000Y-104140000D03*
%TO.P,STM1,2-4*%
%TO.N,Net-(STM1-Pad2-4)*%
X133604000Y-101600000D03*
%TO.P,STM1,2-6*%
%TO.N,Net-(STM1-Pad2-6)*%
X133604000Y-99060000D03*
%TO.P,STM1,2-8*%
%TO.N,Net-(STM1-Pad2-8)*%
X133604000Y-96520000D03*
%TO.P,STM1,2-10*%
%TO.N,Net-(STM1-Pad2-10)*%
X133604000Y-93980000D03*
%TO.P,STM1,2-12*%
%TO.N,Net-(STM1-Pad2-12)*%
X133604000Y-91440000D03*
%TO.P,STM1,2-14*%
%TO.N,7SEGB*%
X133604000Y-88900000D03*
%TO.P,STM1,2-16*%
%TO.N,Net-(STM1-Pad2-16)*%
X133604000Y-86360000D03*
%TO.P,STM1,2-18*%
%TO.N,Net-(STM1-Pad2-18)*%
X133604000Y-83820000D03*
%TO.P,STM1,2-20*%
%TO.N,Net-(STM1-Pad2-20)*%
X133604000Y-81280000D03*
%TO.P,STM1,2-22*%
%TO.N,Net-(STM1-Pad2-22)*%
X133604000Y-78740000D03*
%TO.P,STM1,2-24*%
%TO.N,Net-(STM1-Pad2-24)*%
X133604000Y-76200000D03*
%TO.P,STM1,2-26*%
%TO.N,Net-(STM1-Pad2-26)*%
X133604000Y-73660000D03*
%TO.P,STM1,2-28*%
%TO.N,Net-(STM1-Pad2-28)*%
X133604000Y-71120000D03*
%TO.P,STM1,2-30*%
%TO.N,PB1*%
X133604000Y-68580000D03*
%TO.P,STM1,2-32*%
%TO.N,Net-(STM1-Pad2-32)*%
X133604000Y-66040000D03*
%TO.P,STM1,2-34*%
%TO.N,ALRMB*%
X133604000Y-63500000D03*
%TO.P,STM1,2-36*%
%TO.N,AMPM*%
X133604000Y-60960000D03*
%TO.P,STM1,2-38*%
%TO.N,Net-(STM1-Pad2-38)*%
X133604000Y-58420000D03*
%TO.P,STM1,2-40*%
%TO.N,Net-(STM1-Pad2-40)*%
X133604000Y-55880000D03*
%TO.P,STM1,2-42*%
%TO.N,Net-(STM1-Pad2-42)*%
X133604000Y-53340000D03*
%TO.P,STM1,2-44*%
%TO.N,Net-(STM1-Pad2-44)*%
X133604000Y-50800000D03*
%TO.P,STM1,2-46*%
%TO.N,Net-(STM1-Pad2-46)*%
X133604000Y-48260000D03*
%TO.P,STM1,2-48*%
%TO.N,Net-(STM1-Pad2-48)*%
X133604000Y-45720000D03*
%TO.P,STM1,2-50*%
%TO.N,Net-(STM1-Pad2-50)*%
X133604000Y-43180000D03*
%TD*%
D14*
%TO.P,R9,2*%
%TO.N,7SEGG*%
X154178000Y-62738000D03*
%TO.P,R9,1*%
%TO.N,Net-(R9-Pad1)*%
X154178000Y-70358000D03*
%TD*%
D17*
%TO.P,D1,1*%
%TO.N,GND*%
X167640000Y-104394000D03*
D14*
%TO.P,D1,2*%
%TO.N,Net-(D1-Pad2)*%
X170180000Y-104394000D03*
%TD*%
D18*
%TO.P,D2,1*%
%TO.N,Net-(D2-Pad1)*%
X151511000Y-104394000D03*
D19*
%TO.P,D2,2*%
%TO.N,Net-(D2-Pad2)*%
X153670000Y-104394000D03*
%TO.P,D2,3*%
%TO.N,Net-(D2-Pad3)*%
X155829000Y-104394000D03*
%TO.P,D2,4*%
%TO.N,GND*%
X157988000Y-104394000D03*
%TD*%
D13*
%TO.P,Q1,2*%
%TO.N,Net-(Q1-Pad2)*%
X163209000Y-56280999D03*
%TO.P,Q1,3*%
%TO.N,Net-(Q1-Pad3)*%
X161939000Y-56280999D03*
D12*
%TO.P,Q1,1*%
%TO.N,GND*%
X164479000Y-56280999D03*
%TD*%
%TO.P,Q2,1*%
%TO.N,GND*%
X151044999Y-56280999D03*
D13*
%TO.P,Q2,3*%
%TO.N,Net-(Q2-Pad3)*%
X148504999Y-56280999D03*
%TO.P,Q2,2*%
%TO.N,Net-(Q2-Pad2)*%
X149774999Y-56280999D03*
%TD*%
%TO.P,Q4,2*%
%TO.N,Net-(Q4-Pad2)*%
X156492000Y-56280999D03*
%TO.P,Q4,3*%
%TO.N,Net-(Q4-Pad3)*%
X155222000Y-56280999D03*
D12*
%TO.P,Q4,1*%
%TO.N,GND*%
X157762000Y-56280999D03*
%TD*%
D14*
%TO.P,R2,2*%
%TO.N,GND*%
X159088666Y-118364000D03*
%TO.P,R2,1*%
%TO.N,PB2*%
X151468666Y-118364000D03*
%TD*%
%TO.P,R3,1*%
%TO.N,PB3*%
X169587332Y-118364000D03*
%TO.P,R3,2*%
%TO.N,GND*%
X161967332Y-118364000D03*
%TD*%
%TO.P,R5,1*%
%TO.N,DIGIT1*%
X163237334Y-43180000D03*
%TO.P,R5,2*%
%TO.N,Net-(Q1-Pad2)*%
X163237334Y-50800000D03*
%TD*%
%TO.P,R6,1*%
%TO.N,Net-(R6-Pad1)*%
X164338000Y-70358000D03*
%TO.P,R6,2*%
%TO.N,7SEGF*%
X164338000Y-62738000D03*
%TD*%
%TO.P,R8,1*%
%TO.N,Net-(R8-Pad1)*%
X156718000Y-70358000D03*
%TO.P,R8,2*%
%TO.N,7SEGA*%
X156718000Y-62738000D03*
%TD*%
%TO.P,R10,1*%
%TO.N,Net-(R10-Pad1)*%
X151638000Y-70358000D03*
%TO.P,R10,2*%
%TO.N,7SEGB*%
X151638000Y-62738000D03*
%TD*%
%TO.P,R11,2*%
%TO.N,Net-(Q2-Pad2)*%
X149860000Y-50800000D03*
%TO.P,R11,1*%
%TO.N,DIGIT2*%
X149860000Y-43180000D03*
%TD*%
%TO.P,R12,1*%
%TO.N,Net-(D2-Pad1)*%
X148844000Y-104394000D03*
%TO.P,R12,2*%
%TO.N,ALRMG*%
X141224000Y-104394000D03*
%TD*%
%TO.P,R14,2*%
%TO.N,ALRMR*%
X141224000Y-101600000D03*
%TO.P,R14,1*%
%TO.N,Net-(D2-Pad2)*%
X148844000Y-101600000D03*
%TD*%
%TO.P,R15,2*%
%TO.N,Net-(Q3-Pad2)*%
X169926000Y-50800000D03*
%TO.P,R15,1*%
%TO.N,DIGIT3*%
X169926000Y-43180000D03*
%TD*%
%TO.P,R16,1*%
%TO.N,Net-(D1-Pad2)*%
X173228000Y-104394000D03*
%TO.P,R16,2*%
%TO.N,AMPM*%
X180848000Y-104394000D03*
%TD*%
%TO.P,R18,2*%
%TO.N,Net-(R18-Pad2)*%
X166878000Y-87122000D03*
%TO.P,R18,1*%
%TO.N,7SEGDP*%
X166878000Y-94742000D03*
%TD*%
%TO.P,R19,1*%
%TO.N,7SEGE*%
X161798000Y-94742000D03*
%TO.P,R19,2*%
%TO.N,Net-(R19-Pad2)*%
X161798000Y-87122000D03*
%TD*%
D10*
%TO.P,SW1,2*%
%TO.N,+5V*%
X142820000Y-122936000D03*
%TO.P,SW1,1*%
%TO.N,PB1*%
X147320000Y-122936000D03*
%TO.P,SW1,2*%
%TO.N,+5V*%
X142820000Y-129436000D03*
%TO.P,SW1,1*%
%TO.N,PB1*%
X147320000Y-129436000D03*
%TD*%
%TO.P,SW2,1*%
%TO.N,PB2*%
X157649333Y-129436000D03*
%TO.P,SW2,2*%
%TO.N,+5V*%
X153149333Y-129436000D03*
%TO.P,SW2,1*%
%TO.N,PB2*%
X157649333Y-122936000D03*
%TO.P,SW2,2*%
%TO.N,+5V*%
X153149333Y-122936000D03*
%TD*%
%TO.P,SW4,1*%
%TO.N,PB4*%
X178308000Y-129436000D03*
%TO.P,SW4,2*%
%TO.N,+5V*%
X173808000Y-129436000D03*
%TO.P,SW4,1*%
%TO.N,PB4*%
X178308000Y-122936000D03*
%TO.P,SW4,2*%
%TO.N,+5V*%
X173808000Y-122936000D03*
%TD*%
D20*
%TO.N,7SEGF*%
X181864000Y-69850000D03*
%TO.N,7SEGC*%
X147070653Y-79252653D03*
%TO.N,7SEGA*%
X146558000Y-76454000D03*
%TD*%
D21*
%TO.N,Net-(D1-Pad2)*%
X170180000Y-104394000D02*
X173228000Y-104394000D01*
%TO.N,Net-(D2-Pad1)*%
X148844000Y-104394000D02*
X151511000Y-104394000D01*
%TO.N,Net-(D2-Pad2)*%
X153670000Y-104167998D02*
X153670000Y-104394000D01*
X151102002Y-101600000D02*
X153670000Y-104167998D01*
X148844000Y-101600000D02*
X151102002Y-101600000D01*
%TO.N,Net-(D2-Pad3)*%
X153035000Y-107188000D02*
X155829000Y-104394000D01*
X148844000Y-107188000D02*
X153035000Y-107188000D01*
%TO.N,Net-(Q1-Pad2)*%
X163209000Y-50828334D02*
X163237334Y-50800000D01*
X163209000Y-56280999D02*
X163209000Y-50828334D01*
%TO.N,Net-(Q1-Pad3)*%
X152287298Y-83820000D02*
X151638000Y-83820000D01*
X161939000Y-74168298D02*
X152287298Y-83820000D01*
X161939000Y-56280999D02*
X161939000Y-74168298D01*
%TO.N,Net-(Q2-Pad3)*%
X152900499Y-85097501D02*
X154178000Y-83820000D01*
X151024799Y-85097501D02*
X152900499Y-85097501D01*
X148504999Y-82577701D02*
X151024799Y-85097501D01*
X148504999Y-56280999D02*
X148504999Y-82577701D01*
%TO.N,Net-(Q2-Pad2)*%
X149774999Y-50885001D02*
X149860000Y-50800000D01*
X149774999Y-56280999D02*
X149774999Y-50885001D01*
%TO.N,Net-(Q3-Pad3)*%
X165615501Y-59321498D02*
X168656000Y-56280999D01*
X165615501Y-82542499D02*
X165615501Y-59321498D01*
X164338000Y-83820000D02*
X165615501Y-82542499D01*
%TO.N,Net-(Q3-Pad2)*%
X169926000Y-56280999D02*
X169926000Y-50800000D01*
%TO.N,Net-(Q4-Pad2)*%
X156492000Y-50856668D02*
X156548668Y-50800000D01*
X156492000Y-56280999D02*
X156492000Y-50856668D01*
%TO.N,PB1*%
X145542000Y-122936000D02*
X140970000Y-118364000D01*
X147320000Y-122936000D02*
X145542000Y-122936000D01*
X147320000Y-129436000D02*
X147320000Y-122936000D01*
%TO.N,PB2*%
X156040666Y-122936000D02*
X151468666Y-118364000D01*
X157649333Y-122936000D02*
X156040666Y-122936000D01*
X157649333Y-129436000D02*
X157649333Y-122936000D01*
X147629999Y-105553433D02*
X147629999Y-114525333D01*
X137446056Y-95369490D02*
X147629999Y-105553433D01*
X136096924Y-95369490D02*
X137446056Y-95369490D01*
X147629999Y-114525333D02*
X151468666Y-118364000D01*
X135183990Y-94456556D02*
X136096924Y-95369490D01*
X135183990Y-73183444D02*
X135183990Y-94456556D01*
X136398000Y-71969434D02*
X135183990Y-73183444D01*
X136398000Y-71120000D02*
X136398000Y-71969434D01*
%TO.N,PB3*%
X167978666Y-119972666D02*
X169587332Y-118364000D01*
X167978666Y-122936000D02*
X167978666Y-119972666D01*
X167978666Y-129436000D02*
X167978666Y-122936000D01*
X173958565Y-119578001D02*
X192081990Y-101454576D01*
X170801333Y-119578001D02*
X173958565Y-119578001D01*
X169587332Y-118364000D02*
X170801333Y-119578001D01*
X185808510Y-57030510D02*
X184658000Y-55880000D01*
X188007076Y-57030510D02*
X185808510Y-57030510D01*
X192081990Y-61105424D02*
X188007076Y-57030510D01*
X192081990Y-101454576D02*
X192081990Y-61105424D01*
%TO.N,PB4*%
X178308000Y-120142000D02*
X180086000Y-118364000D01*
X178308000Y-122936000D02*
X178308000Y-120142000D01*
X178308000Y-122936000D02*
X178308000Y-129436000D01*
X180086000Y-118364000D02*
X192532000Y-105918000D01*
X192532000Y-58674000D02*
X187198000Y-53340000D01*
X192532000Y-105918000D02*
X192532000Y-58674000D01*
%TO.N,DIGIT1*%
X164739132Y-43180000D02*
X178054000Y-56494868D01*
X163237334Y-43180000D02*
X164739132Y-43180000D01*
X178054000Y-61976000D02*
X184658000Y-68580000D01*
X178054000Y-56494868D02*
X178054000Y-61976000D01*
%TO.N,Net-(R6-Pad1)*%
X164338000Y-70358000D02*
X164338000Y-73660000D01*
%TO.N,7SEGF*%
X186047490Y-72270510D02*
X187198000Y-71120000D01*
X183609944Y-72270510D02*
X186047490Y-72270510D01*
X181864000Y-70524566D02*
X183609944Y-72270510D01*
X181864000Y-69850000D02*
X181864000Y-70524566D01*
%TO.N,7SEGC*%
X147070653Y-80767347D02*
X147070653Y-79252653D01*
X136398000Y-91440000D02*
X147070653Y-80767347D01*
%TO.N,Net-(R7-Pad1)*%
X159258000Y-73660000D02*
X159258000Y-70358000D01*
%TO.N,Net-(R8-Pad1)*%
X156718000Y-70358000D02*
X156718000Y-73660000D01*
%TO.N,7SEGA*%
X146558000Y-78740000D02*
X146558000Y-76454000D01*
X136398000Y-88900000D02*
X146558000Y-78740000D01*
%TO.N,7SEGG*%
X170508721Y-49585999D02*
X177292000Y-56369278D01*
X162654613Y-49585999D02*
X170508721Y-49585999D01*
X162023333Y-50217279D02*
X162654613Y-49585999D01*
X162023333Y-54769571D02*
X162023333Y-50217279D01*
X154178000Y-62614904D02*
X162023333Y-54769571D01*
X154178000Y-62738000D02*
X154178000Y-62614904D01*
X177292000Y-63754000D02*
X184658000Y-71120000D01*
X177292000Y-56369278D02*
X177292000Y-63754000D01*
%TO.N,Net-(R9-Pad1)*%
X154178000Y-73660000D02*
X154178000Y-70358000D01*
%TO.N,Net-(R10-Pad1)*%
X151638000Y-70358000D02*
X151638000Y-73660000D01*
%TO.N,DIGIT2*%
X188920010Y-64317990D02*
X187198000Y-66040000D01*
X188920010Y-60483444D02*
X188920010Y-64317990D01*
X188246056Y-59809490D02*
X188920010Y-60483444D01*
X186657944Y-59809490D02*
X188246056Y-59809490D01*
X185872010Y-59023556D02*
X186657944Y-59809490D01*
X181857900Y-57269490D02*
X185198056Y-57269490D01*
X185872010Y-57943444D02*
X185872010Y-59023556D01*
X185198056Y-57269490D02*
X185872010Y-57943444D01*
X166104400Y-41515990D02*
X181857900Y-57269490D01*
X151524010Y-41515990D02*
X166104400Y-41515990D01*
X149860000Y-43180000D02*
X151524010Y-41515990D01*
%TO.N,ALRMR*%
X140073490Y-100449490D02*
X141224000Y-101600000D01*
X135183990Y-98695424D02*
X135183990Y-99536556D01*
X135183990Y-99536556D02*
X136096924Y-100449490D01*
X134398056Y-97909490D02*
X135183990Y-98695424D01*
X133048924Y-97909490D02*
X134398056Y-97909490D01*
X136096924Y-100449490D02*
X140073490Y-100449490D01*
X132135990Y-65563444D02*
X132135990Y-96996556D01*
X132135990Y-96996556D02*
X133048924Y-97909490D01*
X132809944Y-64889490D02*
X132135990Y-65563444D01*
X135008510Y-64889490D02*
X132809944Y-64889490D01*
X136398000Y-63500000D02*
X135008510Y-64889490D01*
%TO.N,AMPM*%
X179633999Y-103179999D02*
X180848000Y-104394000D01*
X148054990Y-82764102D02*
X168470887Y-103179999D01*
X148054989Y-72958423D02*
X148054990Y-82764102D01*
X135072010Y-62174010D02*
X137270576Y-62174010D01*
X168470887Y-103179999D02*
X179633999Y-103179999D01*
X137270576Y-62174010D02*
X148054989Y-72958423D01*
X133858000Y-60960000D02*
X135072010Y-62174010D01*
%TO.N,DIGIT4*%
X185983990Y-62285990D02*
X187198000Y-63500000D01*
X185198056Y-59809490D02*
X185983990Y-60595424D01*
X183761490Y-59809490D02*
X185198056Y-59809490D01*
X165917999Y-41965999D02*
X183761490Y-59809490D01*
X185983990Y-60595424D02*
X185983990Y-62285990D01*
X157762669Y-41965999D02*
X165917999Y-41965999D01*
X156548668Y-43180000D02*
X157762669Y-41965999D01*
%TO.N,Net-(R18-Pad2)*%
X166878000Y-87122000D02*
X166878000Y-83820000D01*
%TO.N,Net-(R19-Pad2)*%
X161798000Y-87122000D02*
X161798000Y-83820000D01*
%TO.N,Net-(R20-Pad2)*%
X156718000Y-83820000D02*
X156718000Y-87122000D01*
%TO.N,+5V*%
X172482999Y-130761001D02*
X173808000Y-129436000D01*
X164803667Y-130761001D02*
X172482999Y-130761001D01*
X163478666Y-129436000D02*
X164803667Y-130761001D01*
X151824332Y-130761001D02*
X153149333Y-129436000D01*
X144145001Y-130761001D02*
X151824332Y-130761001D01*
X142820000Y-129436000D02*
X144145001Y-130761001D01*
X153149333Y-129436000D02*
X153149333Y-122936000D01*
X142820000Y-129436000D02*
X142820000Y-122936000D01*
X163478666Y-129436000D02*
X163478666Y-122936000D01*
X173808000Y-129436000D02*
X173808000Y-122936000D01*
X162153665Y-130761001D02*
X163478666Y-129436000D01*
X154474334Y-130761001D02*
X162153665Y-130761001D01*
X153149333Y-129436000D02*
X154474334Y-130761001D01*
%TD*%
M02*
